<svg width="1428" height="799" viewBox="0 0 1428 799" fill="none" xmlns="http://www.w3.org/2000/svg">
<path fill-rule="evenodd" clip-rule="evenodd" d="M547.432 -128.819C696.864 -214.796 847.552 -159.513 989.274 -150.744C1108.67 -143.357 1221.78 -130.336 1303.04 -82.0649C1387.6 -31.8342 1442.84 38.2462 1457.98 127.668C1475.09 228.797 1485.03 341.427 1394.25 456.931C1301.46 574.999 1140.42 688.022 976.87 739.822C824.078 788.215 729.692 704.019 585.878 712.964C441.224 721.961 258.179 825.48 143.614 791.65C22.8175 755.981 -48.1782 654.456 -8.46607 537.461C30.4111 422.925 241.054 338.85 335.893 225.178C434.517 106.971 394.68 -40.9337 547.432 -128.819Z" fill="url(#paint0_linear_2_273)"/>
<defs>
<linearGradient id="paint0_linear_2_273" x1="480.096" y1="-100.925" x2="914.002" y2="776.753" gradientUnits="userSpaceOnUse">
<stop stop-color="#007858"/>
<stop offset="1" stop-color="#FFCB05"/>
</linearGradient>
</defs>
</svg>
